<?xml version="1.0" encoding="iso-8859-1"?>
<!-- Generator: Adobe Illustrator 19.0.0, SVG Export Plug-In . SVG Version: 6.00 Build 0)  -->
<svg version="1.1" id="Capa_1" xmlns="http://www.w3.org/2000/svg" xmlns:xlink="http://www.w3.org/1999/xlink" x="0px" y="0px"
	 viewBox="0 0 512 512" style="enable-background:new 0 0 512 512;" xml:space="preserve">
<path style="fill:#F59F3F;" d="M400,80H64c-4.418,0-8,3.582-8,8v368c0,4.418,3.582,8,8,8h336c4.418,0,8-3.582,8-8V88
	C408,83.582,404.418,80,400,80z"/>
<path style="fill:#F2821C;" d="M84,136v328h316c4.418,0,8-3.582,8-8V128H92C87.582,128,84,131.582,84,136z"/>
<path style="fill:#AD7DC9;" d="M448,128H112c-4.418,0-8,3.582-8,8v368c0,4.418,3.582,8,8,8h336c4.418,0,8-3.582,8-8V136
	C456,131.582,452.418,128,448,128z"/>
<path style="fill:#696578;" d="M263.833,80l-0.016-8.1C263.762,32.254,231.463,0,191.728,0c-39.701,0-72,32.299-72,72v8h16v-8
	c0-30.878,25.121-56,56.089-56c30.836,0,55.957,25.086,56,55.927L247.833,80L248,163.814c0.014,9.662-3.739,18.748-10.565,25.584
	c-6.828,6.837-15.908,10.602-25.57,10.602c-19.926,0-36.137-16.21-36.137-36.136V80v-7.863c0-8.898,7.239-16.137,16.138-16.137
	c4.318,0,8.375,1.684,11.425,4.741c3.049,3.057,4.723,7.118,4.712,11.433L207.979,80l-0.252,87.977
	c-0.013,4.418,3.559,8.01,7.978,8.023c0.008,0,0.015,0,0.023,0c4.406,0,7.986-3.567,7.999-7.977L223.98,80l0.022-7.784
	c0.021-8.599-3.312-16.688-9.384-22.775C208.545,43.353,200.465,40,191.865,40c-17.721,0-32.138,14.417-32.138,32.137V80v83.864
	c0,28.748,23.389,52.136,52.137,52.136c13.939,0,27.041-5.432,36.892-15.296c9.85-9.864,15.264-22.973,15.244-36.917L263.833,80z"/>
<g>
	<path style="fill:#E1E0E4;" d="M312,256H160c-4.418,0-8-3.582-8-8s3.582-8,8-8h152c4.418,0,8,3.582,8,8S316.418,256,312,256z"/>
	<path style="fill:#E1E0E4;" d="M416,336H272c-4.418,0-8-3.582-8-8s3.582-8,8-8h144c4.418,0,8,3.582,8,8S420.418,336,416,336z"/>
	<path style="fill:#E1E0E4;" d="M312,416H160c-4.418,0-8-3.582-8-8s3.582-8,8-8h152c4.418,0,8,3.582,8,8S316.418,416,312,416z"/>
	<path style="fill:#E1E0E4;" d="M416,256h-72c-4.418,0-8-3.582-8-8s3.582-8,8-8h72c4.418,0,8,3.582,8,8S420.418,256,416,256z"/>
	<path style="fill:#E1E0E4;" d="M240,336h-80c-4.418,0-8-3.582-8-8s3.582-8,8-8h80c4.418,0,8,3.582,8,8S244.418,336,240,336z"/>
	<path style="fill:#E1E0E4;" d="M416,416h-72c-4.418,0-8-3.582-8-8s3.582-8,8-8h72c4.418,0,8,3.582,8,8S420.418,416,416,416z"/>
</g>
<g>
</g>
<g>
</g>
<g>
</g>
<g>
</g>
<g>
</g>
<g>
</g>
<g>
</g>
<g>
</g>
<g>
</g>
<g>
</g>
<g>
</g>
<g>
</g>
<g>
</g>
<g>
</g>
<g>
</g>
</svg>
