<svg id="Layer_1" height="512" viewBox="0 0 512 512" width="512" xmlns="http://www.w3.org/2000/svg" data-name="Layer 1"><path d="m444.731 210.221v57.76a49.162 49.162 0 0 0 -64.7 73.08h-61.11a10.063 10.063 0 0 1 -10.06-10.07v-145.93a10.055 10.055 0 0 1 10.06-10.061h90.579v25.16a10.063 10.063 0 0 0 10.07 10.06z" fill="#ccd3df"/><path d="m338.861 330.991v-145.93a10.055 10.055 0 0 1 10.06-10.061h-30a10.055 10.055 0 0 0 -10.06 10.06v145.93a10.063 10.063 0 0 0 10.06 10.07h30a10.063 10.063 0 0 1 -10.06-10.069z" fill="#b0b5ca"/><path d="m431.81 261.635a48.8 48.8 0 0 1 12.921 6.346v-8.646a49.251 49.251 0 0 0 -12.921 2.3z" fill="#b0b5ca"/><path d="m380.031 341.061a49.117 49.117 0 1 1 2.03 2.16c-.7-.7-1.38-1.421-2.03-2.16z" fill="#50dd5a"/><path d="m402.061 343.221c-.7-.7-1.38-1.42-2.03-2.16a49.164 49.164 0 0 1 26.78-80.74 49.159 49.159 0 0 0 -46.78 80.74c.65.74 1.33 1.46 2.03 2.16a49.089 49.089 0 0 0 44.757 13.367 48.892 48.892 0 0 1 -24.757-13.367z" fill="#49c160"/><path d="m217.061 237.841v29.51l-21.61 2.11a81.109 81.109 0 0 1 -11.33 26.88l13.96 16.86-20.82 20.82-16.86-13.97a78.9 78.9 0 0 1 -26.88 11.34l-2.11 21.87h-29.511l-2.11-21.87a81.128 81.128 0 0 1 -26.88-11.34l-16.87 13.97-20.809-20.821 13.96-16.86a78.879 78.879 0 0 1 -11.33-26.88l-21.87-2.11v-29.51l21.87-2.11a81.109 81.109 0 0 1 11.33-26.88l-13.96-16.87 20.81-20.82 16.87 13.97a78.8 78.8 0 0 1 26.88-11.33l2.11-21.87h29.51l2.11 21.87a81.109 81.109 0 0 1 26.88 11.33l16.86-13.97 20.56 20.82-13.97 16.87a78.6 78.6 0 0 1 11.33 26.88zm-51.66 14.75a48.745 48.745 0 1 0 -48.75 48.75 48.74 48.74 0 0 0 48.749-48.75z" fill="#e8a467"/><g fill="#e29454"><path d="m92.911 185.131a78.8 78.8 0 0 1 26.88-11.33l2.11-21.87h-20l-2.11 21.87a79.51 79.51 0 0 0 -14.791 4.777z"/><path d="m92.911 320.051-7.879 6.526a77.488 77.488 0 0 0 14.759 4.814l2.11 21.87h20l-2.11-21.87a81.128 81.128 0 0 1 -26.88-11.34z"/><path d="m55.231 313.2 13.96-16.86a78.879 78.879 0 0 1 -11.33-26.88l-21.87-2.11v-29.51l21.87-2.11a81.109 81.109 0 0 1 11.33-26.88l-13.96-16.87 11.753-11.758-10.943-9.062-20.81 20.82 13.96 16.87a81.109 81.109 0 0 0 -11.33 26.88l-21.87 2.11v29.51l21.87 2.11a78.879 78.879 0 0 0 11.33 26.88l-13.96 16.86 20.81 20.82 10.943-9.061z"/></g><path d="m151.371 391.531-29.63 19.33-31.13 20.3 10.57-50.19z" fill="#edb740"/><path d="m407.051 90.001-13.29 49.55-49.55-13.3 30.66-17.68z" fill="#edb740"/><path d="m492.941 369.681a10.484 10.484 0 0 1 0 14.82l-.08.08a10.484 10.484 0 0 1 -14.82 0l-22.38-22.39 14.89-14.9z" fill="#4a5160"/><path d="m444.731 210.221h-25.16a10.063 10.063 0 0 1 -10.07-10.06v-25.161z" fill="#b0b5ca"/><g fill="#284268"><path d="m88.194 122.989a6 6 0 0 0 8.269-1.9 165.042 165.042 0 0 1 269.528-14.318l-24.774 14.292a6 6 0 0 0 1.443 10.992l49.54 13.29a6 6 0 0 0 7.35-4.24l13.293-49.544a6 6 0 0 0 -8.793-6.752l-27.573 15.906a177.06 177.06 0 0 0 -290.19 14 6 6 0 0 0 1.907 8.274zm301.325 9.211-29.759-7.986 37.74-21.772z"/><path d="m407.19 380.792a6 6 0 0 0 -8.153 2.354 165.041 165.041 0 0 1 -268.337 29.037l23.956-15.625a6 6 0 0 0 -2.043-10.9l-50.2-10.564a6 6 0 0 0 -7.107 4.636l-10.565 50.2a6 6 0 0 0 9.15 6.261l26.662-17.391a177.062 177.062 0 0 0 288.99-29.855 6 6 0 0 0 -2.353-8.153zm-301.378 7.284 30.151 6.345-17.485 11.406-.03.018-18.981 12.381z"/><path d="m95.924 353.835a6 6 0 0 0 5.972 5.425h29.515a6 6 0 0 0 5.972-5.425l1.7-17.632a85.4 85.4 0 0 0 20.826-8.762l13.528 11.2a6 6 0 0 0 8.07-.379l20.818-20.818a6 6 0 0 0 .378-8.07l-11.231-13.561a87.163 87.163 0 0 0 8.789-20.8l17.377-1.695a6 6 0 0 0 5.418-5.972v-29.509a6 6 0 0 0 -5.425-5.972l-17.631-1.7a85.481 85.481 0 0 0 -8.762-20.826l11.2-13.527a6 6 0 0 0 -.352-8.043l-20.554-20.818a6 6 0 0 0 -8.1-.406l-13.562 11.232a87.126 87.126 0 0 0 -20.792-8.788l-1.7-17.635a6 6 0 0 0 -5.972-5.425h-29.506a6 6 0 0 0 -5.972 5.425l-1.7 17.632a85.465 85.465 0 0 0 -20.828 8.762l-13.527-11.2a6 6 0 0 0 -8.07.379l-20.82 20.816a6 6 0 0 0 -.379 8.069l11.231 13.561a87.163 87.163 0 0 0 -8.787 20.792l-17.635 1.7a6 6 0 0 0 -5.425 5.972v29.515a6 6 0 0 0 5.425 5.973l17.632 1.7a85.464 85.464 0 0 0 8.762 20.826l-11.207 13.526a6 6 0 0 0 .379 8.07l20.821 20.818a6 6 0 0 0 8.07.379l13.562-11.232a87.153 87.153 0 0 0 20.793 8.788zm-26.842-38.4-12.658 10.482-13.093-13.092 10.482-12.659a6 6 0 0 0 .372-7.155 72.934 72.934 0 0 1 -10.46-24.818 6 6 0 0 0 -5.288-4.7l-16.449-1.593v-18.614l16.449-1.586a6 6 0 0 0 5.288-4.7 75.277 75.277 0 0 1 10.509-24.9 6 6 0 0 0 -.421-7.08l-10.482-12.655 13.093-13.093 12.658 10.482a6 6 0 0 0 7.155.371 72.992 72.992 0 0 1 24.82-10.46 6 6 0 0 0 4.7-5.289l1.585-16.447h18.615l1.586 16.447a6 6 0 0 0 4.7 5.289 75.31 75.31 0 0 1 24.895 10.51 6 6 0 0 0 7.079-.421l12.632-10.46 12.879 13.044-10.5 12.685a6 6 0 0 0 -.371 7.155 72.969 72.969 0 0 1 10.462 24.822 6 6 0 0 0 5.289 4.706l16.448 1.584v18.623l-16.192 1.58a6 6 0 0 0 -5.281 4.7 75.28 75.28 0 0 1 -10.509 24.893 6 6 0 0 0 .42 7.08l10.483 12.659-13.093 13.092-12.659-10.482a6 6 0 0 0 -7.155-.371 72.967 72.967 0 0 1 -24.819 10.46 6 6 0 0 0 -4.7 5.289l-1.586 16.447h-18.619l-1.585-16.447a6 6 0 0 0 -4.7-5.289 75.3 75.3 0 0 1 -24.895-10.51 6 6 0 0 0 -7.084.421z"/><path d="m171.4 252.594a54.747 54.747 0 1 0 -54.747 54.747 54.809 54.809 0 0 0 54.747-54.747zm-97.494 0a42.747 42.747 0 1 1 42.747 42.747 42.795 42.795 0 0 1 -42.746-42.747z"/><path d="m325.762 218.255h40.328a6 6 0 1 0 0-12h-40.328a6 6 0 0 0 0 12z"/><path d="m497.185 365.441-22.385-22.388a6 6 0 0 0 -8.485 0l-3.207 3.207-3.272-3.272a55.237 55.237 0 0 0 -4.008-73.536 55.236 55.236 0 0 0 -5.1-4.487v-54.742a6 6 0 0 0 -1.757-4.242l-35.226-35.226a6 6 0 0 0 -4.245-1.755h-90.58a16.082 16.082 0 0 0 -16.064 16.065v145.935a16.082 16.082 0 0 0 16.064 16.065h58.5c.131.133.253.273.385.405a55.229 55.229 0 0 0 73.536 4.007l3.272 3.272-3.207 3.208a6 6 0 0 0 0 8.484l22.394 22.385a16.5 16.5 0 0 0 23.308 0l.079-.079a16.5 16.5 0 0 0 -.002-23.306zm-81.685-175.958 14.741 14.74h-10.673a4.069 4.069 0 0 1 -4.065-4.064zm-96.58 145.578a4.069 4.069 0 0 1 -4.061-4.061v-145.938a4.069 4.069 0 0 1 4.064-4.062h84.577v19.162a16.083 16.083 0 0 0 16.065 16.064h19.161v41.626a55.145 55.145 0 0 0 -70.224 77.212zm67.375 3.92a43.164 43.164 0 1 1 61.042 0 43.212 43.212 0 0 1 -61.037 0zm102.4 41.28-.075.075a4.486 4.486 0 0 1 -6.335 0l-18.144-18.136 6.414-6.414 18.145 18.139a4.485 4.485 0 0 1 0 6.336z"/><path d="m325.762 242.612h71.9a6 6 0 0 0 0-12h-71.9a6 6 0 0 0 0 12z"/><path d="m325.762 266.967h39.587a6 6 0 1 0 0-12h-39.587a6 6 0 1 0 0 12z"/><path d="m348.647 279.324h-22.885a6 6 0 0 0 0 12h22.885a6 6 0 0 0 0-12z"/><path d="m348.184 303.68h-22.422a6 6 0 0 0 0 12h22.422a6 6 0 0 0 0-12z"/><path d="m432.291 292.191-23.191 19.441-6.966-8.506a6 6 0 1 0 -9.284 7.6l10.811 13.2a6 6 0 0 0 4.082 2.172c.187.017.374.026.56.026a6 6 0 0 0 3.855-1.4l27.842-23.338a6 6 0 1 0 -7.709-9.2z"/></g></svg>